<svg id="Layer_1" data-name="Layer 1" xmlns="http://www.w3.org/2000/svg" xmlns:xlink="http://www.w3.org/1999/xlink" viewBox="0 0 1080 1080"><defs><style>.cls-1{fill:#012d1e;}.cls-2{fill:url(#linear-gradient);}.cls-3{fill:url(#linear-gradient-2);}.cls-4{fill:url(#linear-gradient-3);}.cls-5{fill:url(#linear-gradient-4);}</style><linearGradient id="linear-gradient" x1="417.16" y1="424.67" x2="417.16" y2="368.4" gradientUnits="userSpaceOnUse"><stop offset="0" stop-color="#2cb88c"/><stop offset="0.76" stop-color="#030e0e"/></linearGradient><linearGradient id="linear-gradient-2" x1="416.59" y1="446.72" x2="555.15" y2="446.72" gradientUnits="userSpaceOnUse"><stop offset="0" stop-color="#2cb88c"/><stop offset="0.6" stop-color="#030e0e"/></linearGradient><linearGradient id="linear-gradient-3" x1="492.68" y1="452.97" x2="673.56" y2="452.97" gradientUnits="userSpaceOnUse"><stop offset="0" stop-color="#2cb88c"/><stop offset="0.71" stop-color="#030e0e"/></linearGradient><linearGradient id="linear-gradient-4" x1="592.84" y1="404.61" x2="660.11" y2="404.61" xlink:href="#linear-gradient-2"/></defs><path class="cls-1" d="M315.18,550.44l25.65,65.11,26-65.11H397l-45.54,107H329.77l-44.9-107Z"/><path class="cls-1" d="M411.31,661.41l-34.64-61.9H406.5l19.08,36.72,18.6-36.72h29.35L416,707.91H387.25Z"/><path class="cls-1" d="M505.42,622V657.4H477.68v-107h44.26c9.3,0,18.92,1.77,27.1,9.62,8.34,8,9.94,17,9.94,26,0,8.5-1.12,18.44-9.46,26.62S531.24,622,522.9,622Zm0-22.45h9.3c2.89,0,8.34-.32,11.71-3.37,3.37-2.88,3.53-7.21,3.53-9.78,0-2.88-.32-6.73-3.21-9.62-3.21-3.37-8.34-3.85-11.87-3.85h-9.46Z"/><path class="cls-1" d="M564.8,584.44h25.66v11.7a23.17,23.17,0,0,1,10.1-9.94,28,28,0,0,1,13.31-2.88c.64,0,1.77.16,5.13.32v24.21a22.61,22.61,0,0,0-11.06-2.57c-3.37,0-8,.49-11.71,3.85-5.45,5-5.77,12.51-5.77,16.36v30.63H564.8Z"/><path class="cls-1" d="M694.05,647.78c-9.46,9.3-20.52,11.87-32.07,11.87-10.42,0-22-2.09-31.91-11.87a37,37,0,0,1,0-52.76c5.93-5.77,16.35-11.86,31.91-11.86,15.87,0,26.14,6.25,32.07,11.86a37,37,0,0,1,0,52.76Zm-43.46-38.17a16.36,16.36,0,0,0,11.55,27.91,16.35,16.35,0,0,0,11.39-4.81,15.86,15.86,0,0,0,5-11.39,17.45,17.45,0,0,0-5-11.71,16.47,16.47,0,0,0-22.94,0Z"/><path class="cls-1" d="M726.34,620.68l-29-32.71h33.36L743,602.72,755.68,588h33.2l-29.67,32.71,35.92,39h-34l-18.28-21.33-18.28,21.33h-34Z"/><path class="cls-2" d="M412.66,422.76c-30.32-65.57-44.48-53,13.95-54l21.18,38.41a1.43,1.43,0,0,1-.61,2L417.4,424.29A3.53,3.53,0,0,1,412.66,422.76Z"/><polygon class="cls-3" points="450.82 413.09 478.16 462.67 513.8 373.36 555.15 373.36 492.68 520.08 462.98 520.08 416.59 430.52 450.82 413.09"/><path class="cls-4" d="M609.68,442.31l63.88,90.25H631.92l-44.41-59.44-43,47H492.68l73.11-77.77-47.43-68.93h47.43l19,33.24a116,116,0,0,0,6.35,9.88Z"/><path class="cls-5" d="M593.36,407.06,615,370.8h42.9a2.25,2.25,0,0,1,1.85,3.53l-44.18,63.32a1.79,1.79,0,0,1-2.93,0l-19.05-26.56A3.7,3.7,0,0,1,593.36,407.06Z"/></svg>